<svg xmlns="http://www.w3.org/2000/svg" width="351.496" height="336.378" viewBox="0 0 93 89" xmlns:v="https://vecta.io/nano"><path d="M83.872 8.42H54.676a2.34 2.34 0 0 0-2.336 2.337v36.624H14.952c-1.29 0-2.337 1.05-2.337 2.34v28.58a2.34 2.34 0 0 0 2.337 2.337l68.917-.02a2.34 2.34 0 0 0 2.338-2.34l.003-67.524c.002-1.287-1.047-2.335-2.338-2.335zM47.455 65.876a2.74 2.74 0 0 1-2.74 2.739H29.418a2.71 2.71 0 0 1-.306-.017v.235l2.194 5.557c.074.185.015.4-.146.52-.08.06-.174.09-.268.09a.44.44 0 0 1-.271-.094l-10.914-8.39c-.1-.084-.174-.216-.174-.352s.064-.27.174-.356l10.914-8.4c.16-.123.38-.123.54-.003s.22.333.146.518l-2.057 5.21.17-.01h12.558V53.95a2.74 2.74 0 0 1 2.739-2.739 2.74 2.74 0 0 1 2.74 2.739zM88.994.733H47.298c-2.662 0-4.82 2.16-4.82 4.822v33.517H5.917c-2.663 0-4.82 2.16-4.82 4.823v40.816c0 2.662 2.16 4.82 4.82 4.82h41.695c.092 0 .176-.023.267-.026h41.1c2.663 0 4.823-2.16 4.823-4.824V46.417c0-.017.005-.032.005-.047V5.556c0-2.663-2.16-4.822-4.822-4.822zm-.71 77.55a4.42 4.42 0 0 1-4.416 4.416H55.084c-.02.01-.1.02-.187.02H14.952a4.42 4.42 0 0 1-4.415-4.416v-28.58a4.42 4.42 0 0 1 4.415-4.416h35.31v-34.55a4.42 4.42 0 0 1 4.414-4.415h29.196a4.42 4.42 0 0 1 4.416 4.415z"/><text xml:space="preserve" x="47.672" y="66.987" font-size="10.583" font-family="sans-serif" letter-spacing="0" word-spacing="0" fill="#fff"><tspan x="47.672" y="66.987" font-weight="bold">ENTER</tspan></text></svg>