<svg xmlns="http://www.w3.org/2000/svg" width="351.496" height="336.378" viewBox="0 0 93 89" xmlns:v="https://vecta.io/nano"><path d="M87.33 77.65a4.42 4.42 0 0 1-4.416 4.416H54.128c-.02.01-.1.02-.187.02H13.996a4.42 4.42 0 0 1-4.415-4.416V49.09a4.42 4.42 0 0 1 4.415-4.416h35.31v-34.55a4.42 4.42 0 0 1 4.414-4.415h29.197a4.42 4.42 0 0 1 4.416 4.415z"/><path d="M88.038.1H46.342c-2.662 0-4.82 2.16-4.82 4.822V38.44H4.96C2.298 38.44.14 40.6.14 43.262v40.816c0 2.663 2.16 4.82 4.822 4.82h41.695c.092 0 .176-.023.267-.026h41.1c2.663 0 4.823-2.16 4.823-4.824V45.784c0-.017.005-.032.005-.047V4.922C92.86 2.26 90.7.1 88.038.1z"/><path d="M82.916 7.787H53.72a2.34 2.34 0 0 0-2.336 2.337v36.624H13.996c-1.29 0-2.337 1.05-2.337 2.34v28.58a2.34 2.34 0 0 0 2.337 2.337l68.917-.02a2.34 2.34 0 0 0 2.338-2.34l.003-67.525c.002-1.287-1.047-2.335-2.338-2.335z" stroke-width="1.965" stroke="#fff"/><text xml:space="preserve" x="44.497" y="66.987" font-size="10.583" font-family="sans-serif" letter-spacing="0" word-spacing="0" fill="#fff"><tspan x="44.497" y="66.987" font-weight="bold">ENTER</tspan></text><path d="M42.3 65.794a2.74 2.74 0 0 1-2.74 2.739H24.263c-.104 0-.205-.006-.306-.017v.235l2.194 5.557c.074.185.015.4-.146.52-.08.06-.174.09-.268.09a.44.44 0 0 1-.271-.094l-10.914-8.39c-.1-.084-.174-.216-.174-.352s.064-.27.174-.356l10.914-8.4c.16-.123.38-.123.54-.003s.22.333.146.518l-2.057 5.21.17-.01H36.82v-9.185a2.74 2.74 0 0 1 2.739-2.739 2.74 2.74 0 0 1 2.74 2.739z" fill="#fff"/></svg>